<svg xmlns="http://www.w3.org/2000/svg" viewBox="0.5833333730697632 21.350000381469727 33.68010330200195 36.74073791503906" data-asc="1.16" width="33.68010330200195" height="36.74073791503906"><defs/><g fill="#000000"><g transform="translate(0, 0)"><path d="M5.35 58.00Q2 57.50 1 54.92Q0 52.35 1.40 48.40L8 29.65Q8.90 27.05 10.07 25.20Q11.25 23.35 13.03 22.35Q14.80 21.35 17.45 21.35Q21.45 21.35 23.48 23.55Q25.50 25.75 26.85 29.65L33.40 48.40Q34.80 52.35 33.93 54.92Q33.05 57.50 29.65 58.00Q26.90 58.35 24.88 57.35Q22.85 56.35 22.45 54.10Q22.15 52.60 22.38 51.60Q22.60 50.60 22.80 50.00Q22.95 49.50 22.82 49.02Q22.70 48.55 22.05 48.55L12.75 48.55Q12.10 48.55 11.97 49.02Q11.85 49.50 12.05 50.00Q12.25 50.60 12.45 51.60Q12.65 52.60 12.40 54.10Q12 56.35 10.05 57.35Q8.10 58.35 5.35 58.00M21.10 41.55L18.50 33.40Q18.40 32.90 18.18 32.62Q17.95 32.35 17.45 32.35Q16.95 32.35 16.73 32.62Q16.50 32.90 16.35 33.40L13.80 41.55L21.10 41.55Z"/></g></g></svg>