<svg xmlns="http://www.w3.org/2000/svg" viewBox="0.5833333730697632 19.450000762939453 357.1166687011719 48.85000228881836" data-asc="1.16" width="357.1166687011719" height="48.85000228881836"><defs/><g fill="#ffffff"><g transform="translate(0, 0)"><path d="M5.35 58.00Q2 57.50 1 54.92Q0 52.35 1.40 48.40L8 29.65Q8.90 27.05 10.07 25.20Q11.25 23.35 13.03 22.35Q14.80 21.35 17.45 21.35Q21.45 21.35 23.48 23.55Q25.50 25.75 26.85 29.65L33.40 48.40Q34.80 52.35 33.93 54.92Q33.05 57.50 29.65 58.00Q26.90 58.35 24.88 57.35Q22.85 56.35 22.45 54.10Q22.15 52.60 22.38 51.60Q22.60 50.60 22.80 50.00Q22.95 49.50 22.82 49.02Q22.70 48.55 22.05 48.55L12.75 48.55Q12.10 48.55 11.97 49.02Q11.85 49.50 12.05 50.00Q12.25 50.60 12.45 51.60Q12.65 52.60 12.40 54.10Q12 56.35 10.05 57.35Q8.10 58.35 5.35 58.00M21.10 41.55L18.50 33.40Q18.40 32.90 18.18 32.62Q17.95 32.35 17.45 32.35Q16.95 32.35 16.73 32.62Q16.50 32.90 16.35 33.40L13.80 41.55L21.10 41.55ZM53.85 58.00Q51.35 58.00 49.83 56.95Q48.30 55.90 47.60 54.17Q46.90 52.45 46.80 50.45L45.85 50.45L45.85 53.25Q45.85 55.30 44.60 56.65Q43.35 58.00 41.15 58.00Q38.85 58.00 37.68 56.65Q36.50 55.30 36.50 53.25L36.50 24.45Q36.50 22.30 37.65 20.87Q38.80 19.45 41.15 19.45Q43.50 19.45 44.68 20.87Q45.85 22.30 45.85 24.35L45.85 39.50L46.05 39.55Q46.55 37.45 47.33 35.70Q48.10 33.95 49.65 32.90Q51.20 31.85 53.95 31.85Q58.20 31.85 60.45 35.32Q62.70 38.80 62.70 44.60Q62.70 51.25 60.43 54.62Q58.15 58.00 53.85 58.00M45.75 44.20Q45.75 44.45 45.78 44.67Q45.80 44.90 45.85 45.15Q46.10 46.20 47.08 46.72Q48.05 47.25 50.15 47.25Q52.65 47.25 53.58 46.50Q54.50 45.75 54.50 44.20Q54.50 42.60 53.60 41.85Q52.70 41.10 50.20 41.10Q48.05 41.10 47.08 41.62Q46.10 42.15 45.85 43.25Q45.80 43.45 45.78 43.67Q45.75 43.90 45.75 44.20ZM69.70 58.00Q67.50 58.00 66.23 56.67Q64.95 55.35 64.95 53.40L64.95 24.45Q64.95 22.35 66.23 20.90Q67.50 19.45 69.85 19.45Q72.15 19.45 73.33 20.90Q74.50 22.35 74.50 24.50L74.50 39.45L75.40 39.45Q75.40 36.60 76.43 34.95Q77.45 33.30 79.08 32.57Q80.70 31.85 82.40 31.85Q85.40 31.85 86.98 33.32Q88.55 34.80 89.13 37.25Q89.70 39.70 89.70 42.60L89.70 53.40Q89.70 55.45 88.38 56.72Q87.05 58.00 84.85 58.00Q82.60 58.00 81.30 56.72Q80.00 55.45 80.00 53.40L80.00 44.55Q80.00 42.75 79.30 41.75Q78.60 40.75 77.25 40.75Q75.90 40.75 75.20 41.85Q74.50 42.95 74.50 44.65L74.50 53.40Q74.50 55.35 73.23 56.67Q71.95 58.00 69.70 58.00ZM92.10 26.05Q92.10 23.90 93.43 22.57Q94.75 21.25 97.10 21.25Q99.60 21.25 100.83 22.55Q102.05 23.85 102.05 26.00Q102.05 28.10 100.83 29.37Q99.60 30.65 97.10 30.65Q94.65 30.65 93.38 29.37Q92.10 28.10 92.10 26.05M97.10 58.00Q94.75 58.00 93.60 56.70Q92.45 55.40 92.45 53.45L92.45 36.35Q92.45 34.20 93.60 32.95Q94.75 31.70 97.10 31.70Q99.45 31.70 100.63 32.95Q101.80 34.20 101.80 36.25L101.80 53.45Q101.80 55.40 100.58 56.70Q99.35 58.00 97.10 58.00ZM109.40 58.00Q107.20 58.00 105.88 56.67Q104.55 55.35 104.55 53.40L104.55 36.85Q104.55 34.75 105.80 33.30Q107.05 31.85 109.40 31.85Q111.70 31.85 112.90 33.30Q114.10 34.75 114.10 36.95L114.10 39.45L115.00 39.45Q115.00 36.60 116.03 34.95Q117.05 33.30 118.65 32.57Q120.25 31.85 121.85 31.85Q125.70 31.85 127.50 34.62Q129.30 37.40 129.30 42.50L129.30 53.40Q129.30 55.35 128.00 56.67Q126.70 58.00 124.50 58.00Q122.25 58.00 120.93 56.67Q119.60 55.35 119.60 53.40L119.60 44.55Q119.60 42.75 118.93 41.75Q118.25 40.75 116.95 40.75Q115.45 40.75 114.78 41.85Q114.10 42.95 114.10 44.65L114.10 53.40Q114.10 55.35 112.85 56.67Q111.60 58.00 109.40 58.00ZM139.30 58.00Q135.60 58.00 133.53 56.00Q131.45 54.00 131.45 50.40Q131.45 46.80 133.85 45.17Q136.25 43.55 140 43.55Q142.20 43.55 144 43.85Q145.80 44.15 147.25 44.70L147.40 44.70L147.40 43.95Q147.40 42.80 146.55 42.12Q145.70 41.45 144.40 41.50Q143.15 41.50 142.28 41.65Q141.40 41.80 140.10 42.15Q137.70 42.75 135.95 42.05Q134.20 41.35 133.55 39.30Q132.95 37.15 133.83 35.70Q134.70 34.25 136.50 33.45Q138.05 32.70 139.98 32.20Q141.90 31.70 144.15 31.70Q150.70 31.70 153.78 34.87Q156.85 38.05 156.85 45.50L156.85 53.25Q156.85 55.30 155.60 56.65Q154.35 58.00 152.15 58.00Q149.75 58.00 148.58 56.65Q147.40 55.30 147.40 53.35L147.40 52.20L146.40 52.20Q146.40 53.50 145.93 54.85Q145.45 56.20 143.98 57.10Q142.50 58.00 139.30 58.00M139.80 47.05Q139.80 47.90 140.43 48.25Q141.05 48.60 143.15 48.60Q145.05 48.60 145.80 48.25Q146.55 47.90 146.55 47.05Q146.55 46.25 145.80 45.92Q145.05 45.60 143.15 45.60Q141.05 45.60 140.43 45.92Q139.80 46.25 139.80 47.05ZM172.45 58.00Q169.20 58.00 166.90 56.10Q164.60 54.20 163.10 49.80L159.15 38.40Q158.35 36.15 159.18 34.25Q160.00 32.35 162.25 31.85Q164.25 31.40 165.78 32.25Q167.30 33.10 167.95 35.10L171.85 46.55Q172.55 48.55 173.58 49.50Q174.60 50.45 176.10 49.95Q177.50 49.40 177.63 48.12Q177.75 46.85 177.05 45.15Q176.45 43.60 175.45 42.50Q174.45 41.40 173.65 40.20Q172.85 39.00 172.85 37.20Q172.85 34.60 174.53 33.12Q176.20 31.65 178.95 31.75Q181.30 31.80 182.80 33.40Q184.30 35.00 184.30 37.45Q184.30 38.80 183.85 40.35Q183.40 41.90 182.85 43.60L180.85 49.90Q180.05 52.40 179.08 54.22Q178.10 56.05 176.58 57.02Q175.05 58.00 172.45 58.00ZM208.60 58.35Q204.90 58.35 201.75 57.02Q198.60 55.70 196.73 52.92Q194.85 50.15 194.85 45.85Q194.85 42.90 196.28 41.35Q197.70 39.80 200.15 39.80Q202.65 39.80 204.03 41.12Q205.40 42.45 205.40 45.10Q205.40 47.50 206.28 48.37Q207.15 49.25 208.40 49.25Q209.65 49.25 210.45 48.37Q211.25 47.50 211.25 45.10L211.25 41.65Q211.25 39.10 211.93 37.45Q212.60 35.80 213.50 34.87Q214.40 33.95 215.10 33.65L214.85 32.70L202.30 32.70Q199.90 32.70 198.48 31.27Q197.05 29.85 196.95 27.30Q196.90 24.80 198.40 23.25Q199.90 21.70 202.30 21.70L216.70 21.70Q219.05 21.70 220.28 23.27Q221.50 24.85 221.50 27.35L221.50 45.85Q221.50 50.15 219.83 52.92Q218.15 55.70 215.23 57.02Q212.30 58.35 208.60 58.35ZM231.80 58.00Q228.10 58.00 226.03 56.00Q223.95 54.00 223.95 50.40Q223.95 46.80 226.35 45.17Q228.75 43.55 232.50 43.55Q234.70 43.55 236.50 43.85Q238.30 44.15 239.75 44.70L239.90 44.70L239.90 43.95Q239.90 42.80 239.05 42.12Q238.20 41.45 236.90 41.50Q235.65 41.50 234.78 41.65Q233.90 41.80 232.60 42.15Q230.20 42.75 228.45 42.05Q226.70 41.35 226.05 39.30Q225.45 37.15 226.33 35.70Q227.20 34.25 229 33.45Q230.55 32.70 232.48 32.20Q234.40 31.70 236.65 31.70Q243.20 31.70 246.28 34.87Q249.35 38.05 249.35 45.50L249.35 53.25Q249.35 55.30 248.10 56.65Q246.85 58.00 244.65 58.00Q242.25 58.00 241.08 56.65Q239.90 55.30 239.90 53.35L239.90 52.20L238.90 52.20Q238.90 53.50 238.43 54.85Q237.95 56.20 236.48 57.10Q235 58.00 231.80 58.00M232.30 47.05Q232.30 47.90 232.93 48.25Q233.55 48.60 235.65 48.60Q237.55 48.60 238.30 48.25Q239.05 47.90 239.05 47.05Q239.05 46.25 238.30 45.92Q237.55 45.60 235.65 45.60Q233.55 45.60 232.93 45.92Q232.30 46.25 232.30 47.05ZM261.65 68.30Q258.30 68.30 256.18 67.20Q254.05 66.10 252.85 64.30Q251.85 62.75 251.73 61.05Q251.60 59.35 252.35 57.87Q253.10 56.40 254.60 55.60Q256.15 54.75 257.70 54.92Q259.25 55.10 260.55 56.07Q261.85 57.05 262.55 58.60Q263.30 60.25 264.08 61.02Q264.85 61.80 266.10 61.35Q267.30 60.95 266.98 59.15Q266.65 57.35 265.65 54.90L263.80 54.90Q261.65 54.90 259.50 53.35Q257.35 51.80 255.90 48.45L251.80 38.95Q250.85 36.70 251.63 34.80Q252.40 32.90 254.45 32.05Q256.35 31.20 258.20 31.95Q260.05 32.70 261.10 35.15L264.90 44.00Q265.85 46.15 266.98 47.10Q268.10 48.05 269.35 47.40Q270.45 46.80 270.55 45.72Q270.65 44.65 269.50 43.10Q269 42.40 268.33 41.55Q267.65 40.70 267.13 39.57Q266.60 38.45 266.60 37.05Q266.60 34.70 268.20 33.17Q269.80 31.65 272.40 31.65Q274.75 31.65 276.18 33.15Q277.60 34.65 277.60 37.05Q277.60 38.75 277.20 40.80Q276.80 42.85 276.30 44.60L272.70 57.75Q271.90 60.70 270.60 63.10Q269.30 65.50 267.15 66.90Q265 68.30 261.65 68.30ZM279.45 45.00Q279.45 41.05 281.03 38.05Q282.60 35.05 285.53 33.35Q288.45 31.65 292.50 31.65Q295.65 31.65 298.18 32.80Q300.70 33.95 302.15 35.87Q303.60 37.80 303.60 40.10Q303.60 42.50 302.20 43.50Q300.80 44.50 298.05 44.50L287.55 44.50Q287.55 45.80 288.57 46.65Q289.60 47.50 292.05 47.50Q293.30 47.50 294.38 47.25Q295.45 47.00 296.57 46.77Q297.70 46.55 299.10 46.55Q301.10 46.55 302.40 47.97Q303.70 49.40 303.70 51.90Q303.70 54.85 300.68 56.50Q297.65 58.15 292.75 58.15Q289.30 58.15 286.28 56.80Q283.25 55.45 281.35 52.52Q279.45 49.60 279.45 45.00M295.65 42.85Q296.40 42.85 296.15 42.15Q295.95 41.45 294.95 40.70Q293.95 39.95 292.05 39.95Q289.85 39.95 288.78 40.90Q287.70 41.85 287.70 42.85L295.65 42.85ZM318.55 58.65Q315.10 58.65 312.18 57.97Q309.25 57.30 307.50 55.82Q305.75 54.35 305.75 51.90Q305.75 49.75 307.05 48.35Q308.35 46.95 310.50 46.95Q311.85 46.95 313.23 47.37Q314.60 47.80 316.15 48.20Q317.70 48.60 319.50 48.60Q321.10 48.60 321.65 48.42Q322.20 48.25 322.20 47.75Q322.20 47.15 321.53 46.95Q320.85 46.75 319.25 46.45L315.65 45.75Q313.40 45.30 311.28 44.57Q309.15 43.85 307.78 42.40Q306.40 40.95 306.40 38.45Q306.40 35.05 309.43 33.15Q312.45 31.25 318.20 31.25Q321.50 31.25 324.13 31.90Q326.75 32.55 328.30 33.82Q329.85 35.10 329.85 37.00Q329.90 39.05 328.75 40.30Q327.60 41.55 325.85 41.55Q324.60 41.55 323.33 41.22Q322.05 40.90 320.58 40.52Q319.10 40.15 317.20 40.10Q315.85 40.00 315 40.25Q314.15 40.50 314.15 41.05Q314.15 41.65 315.15 41.87Q316.15 42.10 318.15 42.45L321.70 43.10Q324.95 43.65 326.88 44.47Q328.80 45.30 329.65 46.75Q330.50 48.20 330.50 50.75Q330.50 53.40 328.98 55.17Q327.45 56.95 324.75 57.80Q322.05 58.65 318.55 58.65ZM337.70 58.00Q335.50 58.00 334.23 56.67Q332.95 55.35 332.95 53.40L332.95 24.45Q332.95 22.35 334.23 20.90Q335.50 19.45 337.85 19.45Q340.15 19.45 341.33 20.90Q342.50 22.35 342.50 24.50L342.50 39.45L343.40 39.45Q343.40 36.60 344.43 34.95Q345.45 33.30 347.08 32.57Q348.70 31.85 350.40 31.85Q353.40 31.85 354.98 33.32Q356.55 34.80 357.13 37.25Q357.70 39.70 357.70 42.60L357.70 53.40Q357.70 55.45 356.38 56.72Q355.05 58.00 352.85 58.00Q350.60 58.00 349.30 56.72Q348 55.45 348 53.40L348 44.55Q348 42.75 347.30 41.75Q346.60 40.75 345.25 40.75Q343.90 40.75 343.20 41.85Q342.50 42.95 342.50 44.65L342.50 53.40Q342.50 55.35 341.23 56.67Q339.95 58.00 337.70 58.00Z"/></g></g></svg>